<?xml version="1.0" encoding="UTF-8"?>
<!DOCTYPE svg PUBLIC "-//W3C//DTD SVG 1.1//EN" "http://www.w3.org/Graphics/SVG/1.1/DTD/svg11.dtd">
<svg xmlns="http://www.w3.org/2000/svg" version="1.1" width="225px" height="225px" style="shape-rendering:geometricPrecision; text-rendering:geometricPrecision; image-rendering:optimizeQuality; fill-rule:evenodd; clip-rule:evenodd" xmlns:xlink="http://www.w3.org/1999/xlink">
<g><path style="opacity:1" fill="#fdfefe" d="M -0.5,-0.5 C 32.5,-0.5 65.5,-0.5 98.5,-0.5C 43.1687,10.1646 10.1687,43.1646 -0.5,98.5C -0.5,65.5 -0.5,32.5 -0.5,-0.5 Z"/></g>
<g><path style="opacity:1" fill="#1977f2" d="M 98.5,-0.5 C 105.5,-0.5 112.5,-0.5 119.5,-0.5C 178.085,7.41658 213.085,40.4166 224.5,98.5C 224.5,105.5 224.5,112.5 224.5,119.5C 219.487,166.014 195.487,198.514 152.5,217C 145.084,219.937 137.418,221.771 129.5,222.5C 129.5,196.5 129.5,170.5 129.5,144.5C 138.5,144.5 147.5,144.5 156.5,144.5C 157.724,133.49 159.057,122.49 160.5,111.5C 150.167,111.5 139.833,111.5 129.5,111.5C 129.334,102.827 129.5,94.1603 130,85.5C 132.302,78.3592 137.135,74.3592 144.5,73.5C 150.5,73.5 156.5,73.5 162.5,73.5C 162.827,63.985 162.494,54.6517 161.5,45.5C 149.893,43.73 138.227,43.23 126.5,44C 110.951,47.216 100.785,56.3827 96,71.5C 94.5966,84.7817 94.0966,98.115 94.5,111.5C 84.8333,111.5 75.1667,111.5 65.5,111.5C 65.1721,122.679 65.5054,133.679 66.5,144.5C 75.8333,144.5 85.1667,144.5 94.5,144.5C 94.8331,170.842 94.4998,197.175 93.5,223.5C 38.2544,210.284 6.92107,175.617 -0.5,119.5C -0.5,112.5 -0.5,105.5 -0.5,98.5C 10.1687,43.1646 43.1687,10.1646 98.5,-0.5 Z"/></g>
<g><path style="opacity:1" fill="#fdfefe" d="M 119.5,-0.5 C 154.5,-0.5 189.5,-0.5 224.5,-0.5C 224.5,32.5 224.5,65.5 224.5,98.5C 213.085,40.4166 178.085,7.41658 119.5,-0.5 Z"/></g>
<g><path style="opacity:1" fill="#fefefe" d="M 161.5,45.5 C 161.5,54.5 161.5,63.5 161.5,72.5C 155.642,72.1778 149.975,72.5111 144.5,73.5C 137.135,74.3592 132.302,78.3592 130,85.5C 129.5,94.1603 129.334,102.827 129.5,111.5C 139.833,111.5 150.167,111.5 160.5,111.5C 159.057,122.49 157.724,133.49 156.5,144.5C 147.5,144.5 138.5,144.5 129.5,144.5C 129.5,170.5 129.5,196.5 129.5,222.5C 137.418,221.771 145.084,219.937 152.5,217C 195.487,198.514 219.487,166.014 224.5,119.5C 224.5,154.5 224.5,189.5 224.5,224.5C 149.5,224.5 74.5,224.5 -0.5,224.5C -0.5,189.5 -0.5,154.5 -0.5,119.5C 6.92107,175.617 38.2544,210.284 93.5,223.5C 94.4998,197.175 94.8331,170.842 94.5,144.5C 85.1667,144.5 75.8333,144.5 66.5,144.5C 66.5,133.833 66.5,123.167 66.5,112.5C 76.015,112.827 85.3483,112.494 94.5,111.5C 94.0966,98.115 94.5966,84.7817 96,71.5C 100.785,56.3827 110.951,47.216 126.5,44C 138.227,43.23 149.893,43.73 161.5,45.5 Z"/></g>
<g><path style="opacity:1" fill="#d7e4fc" d="M 161.5,45.5 C 162.494,54.6517 162.827,63.985 162.5,73.5C 156.5,73.5 150.5,73.5 144.5,73.5C 149.975,72.5111 155.642,72.1778 161.5,72.5C 161.5,63.5 161.5,54.5 161.5,45.5 Z"/></g>
<g><path style="opacity:1" fill="#bdd0fa" d="M 94.5,111.5 C 85.3483,112.494 76.015,112.827 66.5,112.5C 66.5,123.167 66.5,133.833 66.5,144.5C 65.5054,133.679 65.1721,122.679 65.5,111.5C 75.1667,111.5 84.8333,111.5 94.5,111.5 Z"/></g>
</svg>
